<svg xmlns="http://www.w3.org/2000/svg" version="1.1" xmlns:xlink="http://www.w3.org/1999/xlink" xmlns:svgjs="http://svgjs.com/svgjs" width="1080" height="1920" preserveAspectRatio="none" viewBox="0 0 1080 1920"><g mask="url(&quot;#SvgjsMask1006&quot;)" fill="none"><rect width="1080" height="1920" x="0" y="0" fill="url(#SvgjsLinearGradient1007)"></rect><path d="M939.624,237.735C977.231,238.562,1010.573,215.146,1029.262,182.501C1047.828,150.073,1047.791,111.366,1031.118,77.925C1012.238,40.058,981.86,5.269,939.624,2.719C893.552,-0.063,846.461,23.846,826.761,65.587C808.924,103.38,833.654,143.753,856.567,178.702C876.527,209.147,903.228,236.934,939.624,237.735" fill="rgba(0, 0, 0, 0.5)" class="triangle-float1"></path><path d="M692.108,770.58C743.552,771.392,799.499,758.207,824.12,713.031C848.055,669.113,826.251,616.999,798.483,575.398C774.245,539.086,735.765,515.031,692.108,515.254C648.837,515.475,611.059,540.115,587.6,576.476C561.633,616.724,544.418,666.798,567.125,708.972C590.725,752.805,642.332,769.794,692.108,770.58" fill="rgba(0, 0, 0, 0.5)" class="triangle-float1"></path><path d="M290.116,1879.998C399.297,1880.818,517.958,1866.383,576.939,1774.501C639.739,1676.67,626.555,1548.876,566.612,1449.269C508.543,1352.775,402.663,1293.858,290.116,1297.883C183.868,1301.683,100.013,1376.392,45.879,1467.894C-9.495,1561.492,-44.786,1676.693,10.66,1770.248C65.347,1862.523,182.856,1879.192,290.116,1879.998" fill="rgba(0, 0, 0, 0.5)" class="triangle-float2"></path><path d="M732.676,1953.175C797.311,1956.345,865.462,1941.01,901.352,1887.161C940.933,1827.774,949.574,1746.762,909.7,1687.571C872.939,1633,798.456,1635.226,732.676,1636.766C670.714,1638.217,601.534,1642.509,569.452,1695.538C536.606,1749.83,556.457,1818.307,590.417,1871.91C621.743,1921.355,674.213,1950.307,732.676,1953.175" fill="rgba(0, 0, 0, 0.5)" class="triangle-float3"></path><path d="M473.958,2033.857C580.85,2039.492,699.922,2022.6,755.372,1931.042C812.198,1837.213,776.317,1720.664,721.011,1625.931C666.276,1532.177,582.499,1451.156,473.958,1449.012C362.242,1446.805,260.572,1516.493,209.399,1615.824C162.013,1707.804,184.299,1816.425,239.631,1903.856C290.828,1984.753,378.354,2028.817,473.958,2033.857" fill="rgba(0, 0, 0, 0.5)" class="triangle-float3"></path><path d="M605.9509681973097 1275.7079794040555L787.2202447553061 1171.2823251674808 630.4693443942459 1077.096882143407z" fill="rgba(0, 0, 0, 0.5)" class="triangle-float1"></path><path d="M-195.08500578709578 53.498127286709405L-11.726737961887977 279.9267308512507 31.343597777445524-129.8601405384984z" fill="rgba(0, 0, 0, 0.5)" class="triangle-float1"></path><path d="M109.79945119872573 1114.1252858401556L-67.5837666698944 1148.6050905653012 72.82754935213417 1397.4400150056586z" fill="rgba(0, 0, 0, 0.5)" class="triangle-float1"></path><path d="M866.401,1771.601C981.807,1773.066,1095.013,1724.106,1154.319,1625.094C1215.187,1523.475,1217.097,1392.993,1152.748,1293.542C1092.972,1201.159,976.326,1175.208,866.401,1180.118C766.118,1184.598,674.648,1232.328,621.181,1317.287C563.68,1408.657,539.592,1522.94,590.87,1617.942C644.406,1717.127,753.699,1770.17,866.401,1771.601" fill="rgba(0, 0, 0, 0.5)" class="triangle-float3"></path><path d="M980.9537598920684 1079.8690393350325L779.254627140879 1210.5808665743214 964.7651835577273 1309.2185790939284z" fill="rgba(0, 0, 0, 0.5)" class="triangle-float1"></path><path d="M77.812,941.04C134.677,939.534,169.972,885.986,197.797,836.371C224.792,788.235,250.873,730.887,222.066,683.813C193.968,637.898,131.551,637.18,77.812,640.305C30.843,643.036,-14.441,659.583,-40.047,699.052C-68.169,742.399,-76.334,796.578,-53.709,843.031C-28.05,895.715,19.233,942.591,77.812,941.04" fill="rgba(0, 0, 0, 0.5)" class="triangle-float2"></path><path d="M876.2403209271355 306.24395554327555L911.274215903862 428.42166690911665 1077.0238354642604 314.7819687611063z" fill="rgba(0, 0, 0, 0.5)" class="triangle-float3"></path><path d="M86.14371645607196 1526.0052152189303L228.55459480146382 1556.2755818644346 202.75470559702416 1327.5240810235946z" fill="rgba(0, 0, 0, 0.5)" class="triangle-float1"></path><path d="M975.6614268274138 895.6697265672535L758.4079274285418 719.7413115983061 799.7330118584664 1112.9232259661255z" fill="rgba(0, 0, 0, 0.5)" class="triangle-float1"></path><path d="M480.942,348.82C524.067,350.741,573.874,345.165,594.365,307.17C614.324,270.163,587.361,228.754,564.849,193.242C544.548,161.218,518.752,131.093,480.942,128.253C438.142,125.038,393.278,141.511,371.934,178.749C350.681,215.828,360.706,261.807,383.769,297.788C404.929,330.802,441.768,347.075,480.942,348.82" fill="rgba(0, 0, 0, 0.5)" class="triangle-float1"></path><path d="M1143.826,1702.439C1238.11,1705.03,1340.35,1683.003,1387.759,1601.464C1435.346,1519.618,1404.883,1419.193,1355.462,1338.441C1308.591,1261.855,1233.589,1200.699,1143.826,1202.885C1057.083,1204.998,992.568,1273.108,949.324,1348.333C906.257,1423.251,880.454,1512.927,922.057,1588.667C964.928,1666.716,1054.812,1699.993,1143.826,1702.439" fill="rgba(0, 0, 0, 0.5)" class="triangle-float2"></path><path d="M133.232,1805.095C204.165,1803.93,269.405,1770.166,307.849,1710.542C350.099,1645.015,370.314,1562.812,333.904,1493.869C295.401,1420.963,215.651,1377.708,133.232,1379.902C54.253,1382.004,-11.719,1434.83,-49.753,1504.08C-86.279,1570.583,-91.023,1651.611,-51.61,1716.446C-13.566,1779.03,60.002,1806.298,133.232,1805.095" fill="rgba(0, 0, 0, 0.5)" class="triangle-float2"></path><path d="M131.558,109.371C176.775,109.419,214.479,78.113,236.499,38.62C257.896,0.246,262.512,-46.857,239.557,-84.32C217.472,-120.363,173.788,-134.504,131.558,-132.644C92.69,-130.932,59.161,-108.676,38.869,-75.481C17.535,-40.58,8.67,1.831,27.005,38.397C47.241,78.755,86.411,109.323,131.558,109.371" fill="rgba(0, 0, 0, 0.5)" class="triangle-float2"></path><path d="M384.338,764C443.612,761.114,497.947,733.83,529.767,683.738C564.27,629.422,582.085,559.9,549.075,504.664C516.666,450.434,447.438,437.297,384.338,440.39C327.271,443.187,277.032,471.981,245.381,519.548C209.221,573.891,179.869,642.454,212.126,699.201C244.612,756.35,318.679,767.196,384.338,764" fill="rgba(0, 0, 0, 0.5)" class="triangle-float2"></path><path d="M-119.78872149276914 1025.0654147855496L65.21739316706513 1103.5958513034357 90.50999061397724 786.8214610547411z" fill="rgba(0, 0, 0, 0.5)" class="triangle-float1"></path></g><defs><mask id="SvgjsMask1006"><rect width="1080" height="1920" fill="#ffffff"></rect></mask><linearGradient x1="119.44%" y1="89.06%" x2="-19.44%" y2="10.94%" gradientUnits="userSpaceOnUse" id="SvgjsLinearGradient1007"><stop stop-color="rgba(11, 139, 181, 1)" offset="0.07"></stop><stop stop-color="rgba(53, 91, 153, 1)" offset="1"></stop></linearGradient><style>
            @keyframes float1 {
                0%{transform: translate(0, 0)}
                50%{transform: translate(-10px, 0)}
                100%{transform: translate(0, 0)}
            }

            .triangle-float1 {
                animation: float1 5s infinite;
            }

            @keyframes float2 {
                0%{transform: translate(0, 0)}
                50%{transform: translate(-5px, -5px)}
                100%{transform: translate(0, 0)}
            }

            .triangle-float2 {
                animation: float2 4s infinite;
            }

            @keyframes float3 {
                0%{transform: translate(0, 0)}
                50%{transform: translate(0, -10px)}
                100%{transform: translate(0, 0)}
            }

            .triangle-float3 {
                animation: float3 6s infinite;
            }
        </style></defs></svg>