<svg xmlns="http://www.w3.org/2000/svg" version="1.1" xmlns:xlink="http://www.w3.org/1999/xlink" xmlns:svgjs="http://svgjs.com/svgjs" width="1440" height="1000" preserveAspectRatio="none" viewBox="0 0 1440 1000"><g mask="url(&quot;#SvgjsMask1555&quot;)" fill="none"><rect width="1440" height="1000" x="0" y="0" fill="url(#SvgjsLinearGradient1556)"></rect><path d="M547.029,98.515C575.043,100.008,600.303,81.375,613.415,56.574C625.735,33.27,621.025,5.961,608.109,-17.018C594.878,-40.557,574.025,-62.137,547.029,-61.535C520.737,-60.949,502.143,-37.972,490.492,-14.395C480.282,6.266,481.545,29.49,491.863,50.097C503.604,73.545,520.843,97.12,547.029,98.515" fill="rgba(3, 169, 244, 0.5)" class="triangle-float2"></path><path d="M1101.316,1044.325C1189.708,1040.17,1281.421,1018.477,1327.222,942.762C1374.4,864.77,1361.402,767.416,1316.962,687.832C1271.244,605.96,1195.042,541.127,1101.316,538.204C1002.829,535.132,913.074,589.936,861.04,673.612C805.688,762.625,778.356,877.921,835.367,965.881C889.246,1049.009,1002.363,1048.976,1101.316,1044.325" fill="rgba(3, 169, 244, 0.5)" class="triangle-float3"></path><path d="M324.72,1254.802C429.815,1259.493,522.867,1187.889,571.937,1094.834C617.897,1007.677,605.555,903.705,554.208,819.609C505.134,739.235,418.828,693.398,324.72,689.942C223.476,686.224,112.935,712.868,64.056,801.609C16.294,888.321,63.628,988.535,112.986,1074.349C162.541,1160.505,225.428,1250.37,324.72,1254.802" fill="rgba(3, 169, 244, 0.5)" class="triangle-float3"></path><path d="M998.285279551171 256.5258398222729L1068.614204130763 40.07566645642285 781.8351061853209 186.19691524268092z" fill="rgba(3, 169, 244, 0.5)" class="triangle-float3"></path><path d="M1415.057096772548-3.810734604508532L1256.0823698152747 73.53896048033567 1382.6784831638565 162.1825133550636z" fill="rgba(3, 169, 244, 0.5)" class="triangle-float1"></path><path d="M947.546,272.24C1017.959,271.171,1057.852,200.173,1092.875,139.079C1127.624,78.464,1168.539,8.261,1133.543,-52.212C1098.579,-112.63,1017.349,-112.516,947.546,-112.052C878.904,-111.596,801.063,-108.652,765.783,-49.768C729.889,10.14,760.037,82.793,794.367,143.611C829.495,205.842,876.093,273.325,947.546,272.24" fill="rgba(3, 169, 244, 0.5)" class="triangle-float2"></path><path d="M972.951,31.115C1002.281,32.814,1030.351,17.41,1045.37,-7.84C1060.722,-33.65,1062.999,-67.057,1046.12,-91.896C1030.748,-114.517,1000.27,-115.703,972.951,-114.411C948.509,-113.255,923.428,-106.495,910.863,-85.498C898.004,-64.011,901.971,-37.569,913.739,-15.466C926.389,8.292,946.08,29.558,972.951,31.115" fill="rgba(3, 169, 244, 0.5)" class="triangle-float3"></path><path d="M978.5141526765468 264.1093024298077L900.8557723300815 25.101383713797304 661.8478536140711 102.7597640602626 739.5062339605364 341.767682776273z" fill="rgba(3, 169, 244, 0.5)" class="triangle-float2"></path><path d="M496.31255579295146 593.1241218666049L375.77031778531745 610.0652286130921 461.45309690886535 782.4080322512996z" fill="rgba(3, 169, 244, 0.5)" class="triangle-float2"></path><path d="M1400.1251023988225 127.52360824827409L1199.238707391193-80.50034341023292 991.214755732686 120.38605159739663 1192.1011507403155 328.41000325590363z" fill="rgba(3, 169, 244, 0.5)" class="triangle-float2"></path><path d="M1310.153,927.906C1335.781,929.085,1361.555,919.628,1375.475,898.078C1390.596,874.67,1393.346,844.507,1379.732,820.192C1365.829,795.36,1338.551,779.552,1310.153,781.408C1284.255,783.1,1266.35,805.159,1254.722,828.361C1244.453,848.851,1243.32,872.489,1254.47,892.513C1265.938,913.107,1286.606,926.823,1310.153,927.906" fill="rgba(3, 169, 244, 0.5)" class="triangle-float2"></path><path d="M419.43240671995056 791.4484969088318L489.1716497418429 641.8922076172856 269.8761174284044 721.7092538869395z" fill="rgba(3, 169, 244, 0.5)" class="triangle-float2"></path><path d="M867.0606958401074 753.1075433463553L743.3743343062538 853.2667840404551 955.4563761143304 988.7167059941858z" fill="rgba(3, 169, 244, 0.5)" class="triangle-float1"></path><path d="M1116.8541190813937 164.37748864948657L844.8826077381113 54.19224430432497 876.1440531955606 308.7962859490245z" fill="rgba(3, 169, 244, 0.5)" class="triangle-float2"></path><path d="M701.3547030112655 475.304158696502L498.0072142593159 471.7547150773467 494.4577706401607 675.1022038292963 697.8052593921103 678.6516474484516z" fill="rgba(3, 169, 244, 0.5)" class="triangle-float3"></path><path d="M804.485,496.394C866.876,496.005,921.07,461.373,956.112,409.751C997.113,349.349,1035.367,273.206,998.926,209.948C962.453,146.634,877.433,142.349,804.485,146.54C740.314,150.227,677.672,174.774,645.241,230.269C612.534,286.236,616.264,356.036,649.549,411.661C681.944,465.799,741.396,496.787,804.485,496.394" fill="rgba(3, 169, 244, 0.5)" class="triangle-float2"></path></g><defs><mask id="SvgjsMask1555"><rect width="1440" height="1000" fill="#ffffff"></rect></mask><linearGradient x1="92.36%" y1="111%" x2="7.64%" y2="-11%" gradientUnits="userSpaceOnUse" id="SvgjsLinearGradient1556"><stop stop-color="rgba(14, 42, 71, 1)" offset="0.07"></stop><stop stop-color="rgba(125, 134, 162, 1)" offset="1"></stop></linearGradient><style>
            @keyframes float1 {
                0%{transform: translate(0, 0)}
                50%{transform: translate(-10px, 0)}
                100%{transform: translate(0, 0)}
            }

            .triangle-float1 {
                animation: float1 5s infinite;
            }

            @keyframes float2 {
                0%{transform: translate(0, 0)}
                50%{transform: translate(-5px, -5px)}
                100%{transform: translate(0, 0)}
            }

            .triangle-float2 {
                animation: float2 4s infinite;
            }

            @keyframes float3 {
                0%{transform: translate(0, 0)}
                50%{transform: translate(0, -10px)}
                100%{transform: translate(0, 0)}
            }

            .triangle-float3 {
                animation: float3 6s infinite;
            }
        </style></defs></svg>