<svg xmlns="http://www.w3.org/2000/svg" version="1.1" xmlns:xlink="http://www.w3.org/1999/xlink" xmlns:svgjs="http://svgjs.com/svgjs" width="1080" height="1920" preserveAspectRatio="none" viewBox="0 0 1080 1920"><g mask="url(&quot;#SvgjsMask1854&quot;)" fill="none"><rect width="1080" height="1920" x="0" y="0" fill="url(#SvgjsLinearGradient1855)"></rect><path d="M571.2182432084874 1663.1054654404184L828.3731556584503 1713.3456979399089 757.5947384151522 1495.5121284028892z" fill="rgba(0, 0, 0, 0.52)" class="triangle-float3"></path><path d="M1004.9601860921362 554.9214459503993L1145.9685922576389 535.1040068478458 1045.7382305210572 333.5001171508685z" fill="rgba(0, 0, 0, 0.52)" class="triangle-float3"></path><path d="M312.75691229608253 923.9665026476118L132.70051381547086 1040.8964950247178 398.12370162143566 1252.5160965570822z" fill="rgba(0, 0, 0, 0.52)" class="triangle-float1"></path><path d="M720.3760561121462 1596.2220591910148L617.9598719360268 1554.8432348338988 607.0997274884128 1729.1569232766358z" fill="rgba(0, 0, 0, 0.52)" class="triangle-float1"></path><path d="M545.1815187074661 766.7910550788489L330.10684550003526 1031.8692204923236 623.9718614700903 1083.6855514941683z" fill="rgba(0, 0, 0, 0.52)" class="triangle-float2"></path><path d="M216.49655934459787 1191.3435570593251L482.7865940517794 1339.2824652299814 482.7865940517793 1072.9924305227999z" fill="rgba(0, 0, 0, 0.52)" class="triangle-float1"></path><path d="M97.755,1510.162C127.077,1509.494,147.246,1484.452,162.073,1459.146C177.123,1433.458,190.312,1402.948,175.802,1376.951C161.045,1350.512,128.031,1343.505,97.755,1343.912C68.34,1344.308,38.183,1353.65,23.263,1379.004C8.163,1404.665,13.445,1436.308,28.149,1462.198C43.063,1488.458,67.563,1510.85,97.755,1510.162" fill="rgba(0, 0, 0, 0.52)" class="triangle-float3"></path><path d="M843.051,1458.288C918.186,1465.029,1006.139,1458.399,1043.881,1393.082C1081.636,1327.744,1040.889,1249.951,1000.133,1186.441C963.534,1129.409,910.735,1083.441,843.051,1080.129C769.336,1076.522,690.977,1104.193,656.874,1169.644C624.478,1231.819,658.24,1302.976,696.241,1361.893C730.251,1414.622,780.556,1452.681,843.051,1458.288" fill="rgba(0, 0, 0, 0.52)" class="triangle-float2"></path><path d="M1143.3,1057.152C1221.823,1055.944,1299.487,1023.442,1337.914,954.954C1375.639,887.716,1358.745,807.218,1321.365,739.788C1282.565,669.795,1223.277,606.735,1143.3,603.885C1059.13,600.885,983.77,653.237,941.808,726.262C900,799.018,894.388,889.435,938.031,961.106C980.141,1030.259,1062.344,1058.397,1143.3,1057.152" fill="rgba(0, 0, 0, 0.52)" class="triangle-float1"></path><path d="M972.7132883633226 1109.4146639882144L1075.0850388843724 1154.9935038854348 1092.267423469678 978.6464581552501z" fill="rgba(0, 0, 0, 0.52)" class="triangle-float3"></path><path d="M-88.69963799301092 1136.3354676429046L-12.894548162264428 1285.1113333154894 172.36670543123932 1097.0157657330772z" fill="rgba(0, 0, 0, 0.52)" class="triangle-float2"></path><path d="M600.65164169832 241.85707762776082L642.9207209350596 482.9201322167561 809.184861086525 348.2820862292024z" fill="rgba(0, 0, 0, 0.52)" class="triangle-float1"></path><path d="M983.5934809461979 1658.190274012706L1077.5729724717924 1537.9020102367608 850.1508310450774 1457.0769048363418z" fill="rgba(0, 0, 0, 0.52)" class="triangle-float1"></path><path d="M382.739,1270.894C477.044,1264.588,558.865,1207.989,603.058,1124.441C644.452,1046.183,632.442,955.226,591.127,876.927C546.285,791.945,478.644,712.821,382.739,706.902C277.773,700.424,179.666,758.611,124.465,848.125C66.281,942.476,46.913,1063.171,104.701,1157.765C160.609,1249.28,275.737,1278.049,382.739,1270.894" fill="rgba(0, 0, 0, 0.52)" class="triangle-float2"></path><path d="M282.730424049762 1649.3639858847878L339.9498857895241 1532.046703666654 135.3642315924423 1504.8761521660776z" fill="rgba(0, 0, 0, 0.52)" class="triangle-float1"></path><path d="M590.904,1374.422C649.727,1373.862,700.781,1338.62,731.237,1288.292C762.95,1235.887,779.49,1169.042,746.377,1117.509C714.974,1068.637,648.995,1069.644,590.904,1069.895C533.459,1070.143,469.249,1070.809,437.741,1118.843C403.967,1170.332,414.208,1238.191,445.862,1291.011C476.589,1342.285,531.131,1374.991,590.904,1374.422" fill="rgba(0, 0, 0, 0.52)" class="triangle-float1"></path><path d="M435.84,181.319C478.112,180.927,515.292,157.081,537.821,121.311C562.15,82.683,574.864,34.844,553.507,-5.503C530.97,-48.08,483.95,-73.834,435.84,-71.354C391.269,-69.057,358.704,-33.618,337.462,5.633C317.431,42.646,309.971,86.51,330.534,123.231C351.527,160.72,392.875,181.717,435.84,181.319" fill="rgba(0, 0, 0, 0.52)" class="triangle-float2"></path><path d="M435.513,1114.918C544.409,1118.982,642.815,1044.984,689.979,946.747C731.966,859.294,693.272,763.031,644.803,678.997C596.284,594.876,532.493,510.571,435.513,505.557C331.412,500.175,233.733,563.053,185.055,655.229C139.176,742.106,164.938,842.636,211.943,928.909C261.654,1020.149,331.681,1111.043,435.513,1114.918" fill="rgba(0, 0, 0, 0.52)" class="triangle-float1"></path><path d="M187.378,587.74C299.825,589.23,413.939,543.809,468.037,445.219C520.525,349.564,490.539,234.023,431.991,141.953C378.14,57.27,287.713,1.84,187.378,3.868C90.335,5.829,10.31,68.921,-40.69,151.506C-94.982,239.422,-128.561,346.378,-80.687,437.948C-29.858,535.171,77.68,586.286,187.378,587.74" fill="rgba(0, 0, 0, 0.52)" class="triangle-float1"></path><path d="M369.98,1822.4C480.229,1829.101,579.313,1756.955,633.479,1660.697C686.595,1566.305,690.55,1448.38,631.564,1357.541C576.891,1273.344,470.364,1253.686,369.98,1254.904C272.304,1256.089,167.284,1278.749,119.163,1363.757C71.543,1447.881,110.293,1546.906,156.674,1631.719C205.718,1721.402,267.951,1816.199,369.98,1822.4" fill="rgba(0, 0, 0, 0.52)" class="triangle-float2"></path></g><defs><mask id="SvgjsMask1854"><rect width="1080" height="1920" fill="#ffffff"></rect></mask><linearGradient x1="119.44%" y1="89.06%" x2="-19.44%" y2="10.94%" gradientUnits="userSpaceOnUse" id="SvgjsLinearGradient1855"><stop stop-color="rgba(11, 139, 181, 1)" offset="0"></stop><stop stop-color="rgba(61, 106, 161, 1)" offset="0.71"></stop></linearGradient><style>
            @keyframes float1 {
                0%{transform: translate(0, 0)}
                50%{transform: translate(-10px, 0)}
                100%{transform: translate(0, 0)}
            }

            .triangle-float1 {
                animation: float1 5s infinite;
            }

            @keyframes float2 {
                0%{transform: translate(0, 0)}
                50%{transform: translate(-5px, -5px)}
                100%{transform: translate(0, 0)}
            }

            .triangle-float2 {
                animation: float2 4s infinite;
            }

            @keyframes float3 {
                0%{transform: translate(0, 0)}
                50%{transform: translate(0, -10px)}
                100%{transform: translate(0, 0)}
            }

            .triangle-float3 {
                animation: float3 6s infinite;
            }
        </style></defs></svg>