<svg xmlns="http://www.w3.org/2000/svg" version="1.1" xmlns:xlink="http://www.w3.org/1999/xlink" xmlns:svgjs="http://svgjs.com/svgjs" width="1000" height="1500" preserveAspectRatio="none" viewBox="0 0 1000 1500"><g mask="url(&quot;#SvgjsMask1751&quot;)" fill="none"><rect width="1000" height="1500" x="0" y="0" fill="url(#SvgjsLinearGradient1752)"></rect><path d="M508.246,145.891C540.282,146.146,571.755,133.256,588.542,105.969C606.122,77.394,605.918,41.913,590.566,12.082C573.704,-20.683,545.075,-51.271,508.246,-50.059C472.684,-48.888,450.839,-14.554,434.807,17.21C420.701,45.158,414.612,77.521,430.129,104.711C445.767,132.112,476.698,145.64,508.246,145.891" fill="rgba(3, 169, 244, 0.5)" class="triangle-float3"></path><path d="M347.37217504273883 1424.5251058445485L459.1619979205326 1323.869097214044 252.28307353587857 1206.5123672126056z" fill="rgba(3, 169, 244, 0.5)" class="triangle-float3"></path><path d="M969.501,1842.651C1062.757,1840.75,1136.455,1775.041,1185.15,1695.486C1236.65,1611.348,1276.379,1507.712,1226.668,1422.505C1177.207,1337.727,1067.645,1324.65,969.501,1325.857C874.106,1327.031,772.808,1347.294,723.064,1428.701C671.592,1512.935,687.57,1619.777,738.067,1704.599C787.316,1787.325,873.245,1844.613,969.501,1842.651" fill="rgba(3, 169, 244, 0.5)" class="triangle-float2"></path><path d="M138.794,1193.438C209.374,1190.672,279.127,1168.281,317.576,1109.029C359.624,1044.231,370.918,960.974,333.488,893.403C295.019,823.956,218.179,785.369,138.794,786.284C60.989,787.18,-7.936,831.268,-48.281,897.802C-90.323,967.135,-109.388,1055.547,-66.03,1124.065C-24.717,1189.352,61.593,1196.464,138.794,1193.438" fill="rgba(3, 169, 244, 0.5)" class="triangle-float3"></path><path d="M108.40846386373263 620.5736859886874L40.651809724813624 937.8565337548271 311.86841449187654 854.9372963564889z" fill="rgba(3, 169, 244, 0.5)" class="triangle-float2"></path><path d="M432.781,858.431C479.847,858.702,520.739,829.595,544.85,789.172C569.634,747.621,577.949,696.509,554.653,654.106C530.567,610.264,482.748,582.834,432.781,585.18C386.192,587.367,351.461,623.683,329.239,664.689C308.24,703.439,302.152,749.022,322.926,787.893C344.91,829.028,386.141,858.162,432.781,858.431" fill="rgba(3, 169, 244, 0.5)" class="triangle-float3"></path><path d="M518.445,280.854C584.713,280.782,632.087,223.925,663.955,165.823C694.335,110.434,710.199,44.047,678.205,-10.425C646.536,-64.343,580.957,-80.354,518.445,-81.914C452.267,-83.566,377.834,-75.806,344.245,-18.761C310.342,38.818,338.804,108.373,372.389,166.138C405.739,223.498,452.094,280.926,518.445,280.854" fill="rgba(3, 169, 244, 0.5)" class="triangle-float1"></path><path d="M355.1728784219422 1337.3398585488144L548.189205759623 1530.7244342943623 614.0233180727715 1301.1336001160435z" fill="rgba(3, 169, 244, 0.5)" class="triangle-float1"></path><path d="M70.58386588033989 1184.6718380477405L202.148980967454 1353.3987056509416 275.22866112725734 1181.2337682528257z" fill="rgba(3, 169, 244, 0.5)" class="triangle-float3"></path><path d="M1041.9753134893265 209.8366374215335L971.7093640336476 92.89445943456866 831.4290717810397 256.7644726115694z" fill="rgba(3, 169, 244, 0.5)" class="triangle-float3"></path><path d="M801.538,175.263C849.841,173.279,874.364,122.559,898.05,80.415C921.022,39.542,950.51,-7.177,926.808,-47.631C903.234,-87.867,848.17,-83.844,801.538,-84.31C753.63,-84.789,697.746,-90.49,671.852,-50.18C644.753,-7.994,665.236,45.491,690.238,88.953C715.329,132.57,751.261,177.329,801.538,175.263" fill="rgba(3, 169, 244, 0.5)" class="triangle-float2"></path><path d="M101.824,544.644C171.075,544.415,220.757,483.91,252.026,422.12C279.948,366.944,279.679,304.036,251.42,249.032C220.184,188.233,170.158,128.144,101.824,129.76C35.111,131.338,-5.309,196.573,-35.999,255.829C-63.583,309.09,-75.943,368.989,-50.111,423.121C-20.175,485.852,32.316,544.874,101.824,544.644" fill="rgba(3, 169, 244, 0.5)" class="triangle-float2"></path><path d="M555.3776793991639 1037.1289796836097L555.6428951737478 758.839616792061 342.87522438061836 876.7786625692156z" fill="rgba(3, 169, 244, 0.5)" class="triangle-float1"></path><path d="M720.3447572678205 1289.8401370278966L871.4364601994042 1514.303939859243 978.817982816553 1303.5558354736875z" fill="rgba(3, 169, 244, 0.5)" class="triangle-float3"></path><path d="M71.65954231227792 798.2882473377418L151.70428913572562 948.8305211005465 337.4953263682089 753.4922639839726z" fill="rgba(3, 169, 244, 0.5)" class="triangle-float1"></path><path d="M269.69262139729864 127.62985297330819L530.3928179711163 192.89367290579526 469.58961578913187-34.02696690025331z" fill="rgba(3, 169, 244, 0.5)" class="triangle-float2"></path><path d="M867.2333651215408 263.87829839781944L764.4310413389722 314.01834188687747 891.0422684638436 443.1518058162014z" fill="rgba(3, 169, 244, 0.5)" class="triangle-float1"></path><path d="M148.96,731.989C179.542,731.74,199.818,702.622,212.759,674.912C223.583,651.735,221.025,625.992,209.006,603.411C196.064,579.096,176.461,556.598,148.96,555.049C119.11,553.368,90.197,569.641,75.936,595.918C62.237,621.16,69.758,650.659,83.339,675.965C97.916,703.127,118.135,732.24,148.96,731.989" fill="rgba(3, 169, 244, 0.5)" class="triangle-float3"></path><path d="M360.24310989254366 1215.410858109953L504.5669408027836 1055.1230053129484 199.95525709553888 1071.0870271997132z" fill="rgba(3, 169, 244, 0.5)" class="triangle-float1"></path><path d="M881.2890601442948 817.9269491739916L807.6524539603182 968.9043657138607 1070.93688186211 1003.870566719891z" fill="rgba(3, 169, 244, 0.5)" class="triangle-float2"></path></g><defs><mask id="SvgjsMask1751"><rect width="1000" height="1500" fill="#ffffff"></rect></mask><linearGradient x1="112.5%" y1="91.67%" x2="-12.5%" y2="8.33%" gradientUnits="userSpaceOnUse" id="SvgjsLinearGradient1752"><stop stop-color="rgba(14, 42, 71, 1)" offset="0.07"></stop><stop stop-color="rgba(125, 134, 162, 1)" offset="1"></stop></linearGradient><style>
            @keyframes float1 {
                0%{transform: translate(0, 0)}
                50%{transform: translate(-10px, 0)}
                100%{transform: translate(0, 0)}
            }

            .triangle-float1 {
                animation: float1 5s infinite;
            }

            @keyframes float2 {
                0%{transform: translate(0, 0)}
                50%{transform: translate(-5px, -5px)}
                100%{transform: translate(0, 0)}
            }

            .triangle-float2 {
                animation: float2 4s infinite;
            }

            @keyframes float3 {
                0%{transform: translate(0, 0)}
                50%{transform: translate(0, -10px)}
                100%{transform: translate(0, 0)}
            }

            .triangle-float3 {
                animation: float3 6s infinite;
            }
        </style></defs></svg>