<svg xmlns="http://www.w3.org/2000/svg" version="1.1" xmlns:xlink="http://www.w3.org/1999/xlink" xmlns:svgjs="http://svgjs.com/svgjs" width="1000" height="1500" preserveAspectRatio="none" viewBox="0 0 1000 1500"><g mask="url(&quot;#SvgjsMask1665&quot;)" fill="none"><rect width="1000" height="1500" x="0" y="0" fill="url(#SvgjsLinearGradient1666)"></rect><path d="M-99.73 1022.36 a259.22 259.22 0 1 0 518.44 0 a259.22 259.22 0 1 0 -518.44 0z" fill="rgba(3, 169, 244, 0.5)" class="triangle-float2"></path><path d="M722.8736301447491 1074.1026844957419L819.4419691832671 1281.710488399699 937.0896754048446 1119.7823125714158z" fill="rgba(3, 169, 244, 0.5)" class="triangle-float3"></path><path d="M786.5742126344394 387.71777193435804L649.2766690749016 494.77580825178177 789.371861545567 554.2426893276165z" fill="rgba(3, 169, 244, 0.5)" class="triangle-float3"></path><path d="M814.129,685.056C843.764,685.214,875.692,679.865,891.317,654.684C907.616,628.417,901.376,595.431,886.582,568.288C871.006,539.71,846.67,512.418,814.129,513.064C782.302,513.696,761.579,543.038,746.494,571.07C732.408,597.244,723.187,628.306,738.354,653.868C753.293,679.045,784.854,684.9,814.129,685.056" fill="rgba(3, 169, 244, 0.5)" class="triangle-float1"></path><path d="M628.65 542.46 a280.97 280.97 0 1 0 561.94 0 a280.97 280.97 0 1 0 -561.94 0z" fill="rgba(3, 169, 244, 0.5)" class="triangle-float2"></path><path d="M869.4997917957727 1110.9169081821713L752.4829829425348 1291.1069923126604 1049.6898759262617 1227.933717035409z" fill="rgba(3, 169, 244, 0.5)" class="triangle-float1"></path><path d="M384.1001808073783 1657.1031880200876L596.1430166607263 1567.0963442426744 294.093337029965 1445.0603521667397z" fill="rgba(3, 169, 244, 0.5)" class="triangle-float3"></path><path d="M540.93194511674 92.9992633616263L383.69424309971157 16.309311936713414 347.2781669708565 290.51084067471254z" fill="rgba(3, 169, 244, 0.5)" class="triangle-float3"></path><path d="M201.79 119.81 a200.36 200.36 0 1 0 400.72 0 a200.36 200.36 0 1 0 -400.72 0z" fill="rgba(3, 169, 244, 0.5)" class="triangle-float3"></path><path d="M785.25 922.62 a180.26 180.26 0 1 0 360.52 0 a180.26 180.26 0 1 0 -360.52 0z" fill="rgba(3, 169, 244, 0.5)" class="triangle-float2"></path><path d="M1039.7815471797473 971.6550814900924L856.3788208414882 1081.6168026820928 1018.2658218016176 1175.0823062647248z" fill="rgba(3, 169, 244, 0.5)" class="triangle-float3"></path><path d="M304.228,1378.197C393.123,1374.665,474.843,1329.411,519.007,1252.182C562.855,1175.505,557.328,1083.875,517.67,1004.949C472.862,915.774,403.866,830.432,304.228,824.74C196.501,818.586,96.132,883.461,43.912,977.886C-6.739,1069.474,0.644,1182.771,57.701,1270.512C110.097,1351.085,208.193,1382.013,304.228,1378.197" fill="rgba(3, 169, 244, 0.5)" class="triangle-float1"></path><path d="M631.4532103553738 880.0179997124029L604.4992701785283 660.4957733132703 384.9770437793957 687.4497134901158 411.9309839562412 906.9719398892485z" fill="rgba(3, 169, 244, 0.5)" class="triangle-float3"></path><path d="M800.327,499.817C887.746,492.927,936.354,408.551,979.793,332.377C1022.638,257.245,1068.556,173.515,1030.772,95.715C989.255,10.228,895.064,-44.675,800.327,-37.158C714.723,-30.366,669.049,53.814,625.569,127.866C581.23,203.379,526.874,285.885,564.112,365.141C605.422,453.064,703.483,507.45,800.327,499.817" fill="rgba(3, 169, 244, 0.5)" class="triangle-float2"></path><path d="M-102.12 1424.75 a183 183 0 1 0 366 0 a183 183 0 1 0 -366 0z" fill="rgba(3, 169, 244, 0.5)" class="triangle-float1"></path><path d="M140.12 605.01 a304.71 304.71 0 1 0 609.42 0 a304.71 304.71 0 1 0 -609.42 0z" fill="rgba(3, 169, 244, 0.5)" class="triangle-float3"></path><path d="M82.642,1297.767C147.39,1295.471,202.152,1255.201,234.944,1199.323C268.199,1142.656,278.187,1074.277,248.068,1015.883C215.365,952.48,153.928,906.827,82.642,904.046C6.513,901.076,-69.462,935.606,-106.759,1002.04C-143.399,1067.303,-129.956,1147.803,-89.59,1210.83C-52.416,1268.873,13.758,1300.209,82.642,1297.767" fill="rgba(3, 169, 244, 0.5)" class="triangle-float3"></path></g><defs><mask id="SvgjsMask1665"><rect width="1000" height="1500" fill="#ffffff"></rect></mask><linearGradient x1="112.5%" y1="91.67%" x2="-12.5%" y2="8.33%" gradientUnits="userSpaceOnUse" id="SvgjsLinearGradient1666"><stop stop-color="rgba(14, 42, 71, 1)" offset="0.07"></stop><stop stop-color="rgba(125, 134, 162, 1)" offset="1"></stop></linearGradient><style>
            @keyframes float1 {
                0%{transform: translate(0, 0)}
                50%{transform: translate(-10px, 0)}
                100%{transform: translate(0, 0)}
            }

            .triangle-float1 {
                animation: float1 5s infinite;
            }

            @keyframes float2 {
                0%{transform: translate(0, 0)}
                50%{transform: translate(-5px, -5px)}
                100%{transform: translate(0, 0)}
            }

            .triangle-float2 {
                animation: float2 4s infinite;
            }

            @keyframes float3 {
                0%{transform: translate(0, 0)}
                50%{transform: translate(0, -10px)}
                100%{transform: translate(0, 0)}
            }

            .triangle-float3 {
                animation: float3 6s infinite;
            }
        </style></defs></svg>