<svg xmlns="http://www.w3.org/2000/svg" version="1.1" xmlns:xlink="http://www.w3.org/1999/xlink" xmlns:svgjs="http://svgjs.com/svgjs" width="1000" height="1000" preserveAspectRatio="none" viewBox="0 0 1000 1000"><g mask="url(&quot;#SvgjsMask1771&quot;)" fill="none"><rect width="1000" height="1000" x="0" y="0" fill="url(#SvgjsLinearGradient1772)"></rect><path d="M144.17353522896119 75.52519020048646L-132.06910307794516 175.77125027670525 61.80683645021057 344.3050332901918z" fill="rgba(3, 169, 244, 0.5)" class="triangle-float3"></path><path d="M789.095,445.65C859.105,451.179,929.634,419.03,965.308,358.538C1001.49,297.185,996.813,219.003,957.962,159.305C922.223,104.389,854.584,85.736,789.095,87.77C727.626,89.679,666.825,115.22,637.465,169.258C609.193,221.294,626.802,282.136,655.285,334.056C685.225,388.631,727.04,440.75,789.095,445.65" fill="rgba(3, 169, 244, 0.5)" class="triangle-float3"></path><path d="M558.783,1317.362C648.646,1320.329,746.468,1300.051,791.863,1222.44C837.573,1144.291,804.206,1050.664,761.454,970.859C715.329,884.757,656.272,793.43,558.783,787.347C453.325,780.766,353.814,847.778,306.994,942.501C264.411,1028.652,297.336,1128.105,350.92,1207.881C397.719,1277.556,474.896,1314.592,558.783,1317.362" fill="rgba(3, 169, 244, 0.5)" class="triangle-float2"></path><path d="M284.306,357.695C324.461,360.712,370.513,358.138,391.861,323.995C414.029,288.542,399.528,243.65,378.043,207.779C357.273,173.101,324.727,144.071,284.306,144.418C244.367,144.76,211.199,173.652,193.312,209.363C177.205,241.52,182.714,279.039,201.52,309.695C219.397,338.838,250.213,355.134,284.306,357.695" fill="rgba(3, 169, 244, 0.5)" class="triangle-float2"></path><path d="M490.91786890334197 587.0930730033741L237.32149287536166 474.1846919054273 378.00948780539517 840.6894490313545z" fill="rgba(3, 169, 244, 0.5)" class="triangle-float1"></path><path d="M275.114,1027.488C330.265,1026.135,385.159,1005.402,412.856,957.691C440.654,909.807,432.54,851.204,405.498,802.889C377.724,753.266,331.963,713.002,275.114,711.589C216.057,710.121,163.109,745.291,133,796.117C102.26,848.008,93.577,913.359,125.144,964.752C155.541,1014.24,217.053,1028.913,275.114,1027.488" fill="rgba(3, 169, 244, 0.5)" class="triangle-float2"></path><path d="M266.1374916101994 953.933639574509L331.86058081942235 852.7289571875663 147.1920126343968 804.7466645672032z" fill="rgba(3, 169, 244, 0.5)" class="triangle-float1"></path><path d="M731.2049831545677 685.1684500536696L637.9699992582689 955.1065214756227 883.8243205838505 911.7557713021539z" fill="rgba(3, 169, 244, 0.5)" class="triangle-float1"></path><path d="M995.748,239.675C1050.856,238.372,1090.751,192.037,1116.047,143.061C1139.004,98.612,1141.091,47.407,1117.964,3.045C1092.824,-45.178,1050.098,-85.793,995.748,-87.696C938.501,-89.701,885.419,-56.223,857.75,-6.067C830.96,42.495,838.018,100.635,865.174,148.993C892.983,198.515,938.968,241.018,995.748,239.675" fill="rgba(3, 169, 244, 0.5)" class="triangle-float3"></path><path d="M938.7791192610676 582.858510310097L1093.141150370667 478.7400056495765 859.7823778250865 299.2562113154377z" fill="rgba(3, 169, 244, 0.5)" class="triangle-float2"></path><path d="M196.78462728838554 160.96075367695676L20.44013992309752 363.43184631207794 250.02184213897274 412.23094355743524z" fill="rgba(3, 169, 244, 0.5)" class="triangle-float3"></path><path d="M57.878,740.978C85.5,740.813,115.09,734.67,129.082,710.854C143.212,686.805,136.087,656.774,121.214,633.177C107.402,611.263,83.749,596.57,57.878,597.881C33.894,599.097,17.691,618.839,4.765,639.079C-9.701,661.731,-27.243,687.882,-14.82,711.716C-1.879,736.543,29.882,741.146,57.878,740.978" fill="rgba(3, 169, 244, 0.5)" class="triangle-float3"></path><path d="M252.8011449197057 525.0073705397017L47.089198809856356 363.971631589387 11.364130130306592 589.530838076764z" fill="rgba(3, 169, 244, 0.5)" class="triangle-float1"></path><path d="M651.355,226.059C707.076,222.529,757.123,194.79,786.251,147.157C816.814,97.176,825.795,36.091,799.548,-16.285C770.409,-74.433,716.379,-120.549,651.355,-122.031C584.091,-123.564,524.866,-81.443,490.977,-23.32C456.817,35.269,446.526,109.311,483.21,166.353C517.691,219.969,587.736,230.089,651.355,226.059" fill="rgba(3, 169, 244, 0.5)" class="triangle-float2"></path><path d="M162.6172750040251 598.7970356034468L311.4110335967123 590.9990851444271 225.31722861183906 371.70742248490626z" fill="rgba(3, 169, 244, 0.5)" class="triangle-float3"></path><path d="M831.82,455.296C903.442,453.756,963.238,408.5,1000.962,347.598C1041.209,282.622,1062.796,204.579,1029.834,135.621C992.302,57.102,918.827,-4.334,831.82,-6.257C741.934,-8.244,658.52,46.239,618.041,126.519C580.917,200.147,604.641,286.026,649.591,355.155C690.086,417.434,757.55,456.893,831.82,455.296" fill="rgba(3, 169, 244, 0.5)" class="triangle-float2"></path><path d="M1030.4406415369313 479.98280390654054L851.5546601632933 579.1409225599596 1129.5987601903503 658.8687852801785z" fill="rgba(3, 169, 244, 0.5)" class="triangle-float1"></path><path d="M817.595733556935 755.2108875229148L642.6330483309135 930.1735727489363 992.5584187829564 930.1735727489363z" fill="rgba(3, 169, 244, 0.5)" class="triangle-float3"></path><path d="M176.441,796.742C262.565,791.211,333.415,736.26,376.635,661.561C419.936,586.722,431.028,498.472,394.305,420.195C350.9,327.676,278.636,234.689,176.441,234.836C74.396,234.983,8.795,331.383,-40.337,420.822C-87.082,505.915,-122.369,606.39,-73.869,690.495C-25.338,774.654,79.492,802.969,176.441,796.742" fill="rgba(3, 169, 244, 0.5)" class="triangle-float1"></path><path d="M467.86512659179806 200.28687820603582L583.1214706135311 371.1614352261338 638.739683611896 85.03053418430275z" fill="rgba(3, 169, 244, 0.5)" class="triangle-float3"></path></g><defs><mask id="SvgjsMask1771"><rect width="1000" height="1000" fill="#ffffff"></rect></mask><linearGradient x1="100%" y1="100%" x2="0%" y2="0%" gradientUnits="userSpaceOnUse" id="SvgjsLinearGradient1772"><stop stop-color="rgba(14, 42, 71, 1)" offset="0.07"></stop><stop stop-color="rgba(125, 134, 162, 1)" offset="1"></stop></linearGradient><style>
            @keyframes float1 {
                0%{transform: translate(0, 0)}
                50%{transform: translate(-10px, 0)}
                100%{transform: translate(0, 0)}
            }

            .triangle-float1 {
                animation: float1 5s infinite;
            }

            @keyframes float2 {
                0%{transform: translate(0, 0)}
                50%{transform: translate(-5px, -5px)}
                100%{transform: translate(0, 0)}
            }

            .triangle-float2 {
                animation: float2 4s infinite;
            }

            @keyframes float3 {
                0%{transform: translate(0, 0)}
                50%{transform: translate(0, -10px)}
                100%{transform: translate(0, 0)}
            }

            .triangle-float3 {
                animation: float3 6s infinite;
            }
        </style></defs></svg>