<svg xmlns="http://www.w3.org/2000/svg" version="1.1" xmlns:xlink="http://www.w3.org/1999/xlink" xmlns:svgjs="http://svgjs.com/svgjs" width="1920" height="1080" preserveAspectRatio="none" viewBox="0 0 1920 1080"><g mask="url(&quot;#SvgjsMask2217&quot;)" fill="none"><rect width="1920" height="1080" x="0" y="0" fill="url(#SvgjsLinearGradient2218)"></rect><path d="M1758.98,890.242C1868.154,892.019,1974.984,842.88,2029.681,748.38C2084.472,653.717,2071.546,537.915,2018.166,442.45C1963.324,344.371,1871.116,257.012,1758.98,264.261C1654.28,271.03,1601.704,380.192,1551.993,472.587C1506.009,558.055,1460.027,652.85,1503.124,739.81C1550.21,834.82,1652.956,888.516,1758.98,890.242" fill="rgba(0, 0, 0, 0.5)" class="triangle-float1"></path><path d="M158.075,1024.936C234.93,1023.256,315.387,1005.565,355.863,940.211C398.185,871.875,390.511,784.634,349.838,715.304C309.67,646.835,237.302,598.107,158.075,603.068C85.246,607.628,42.126,674.849,3.836,736.968C-37.464,803.97,-92.438,879.815,-55.276,949.197C-17.086,1020.498,77.21,1026.703,158.075,1024.936" fill="rgba(0, 0, 0, 0.5)" class="triangle-float1"></path><path d="M555.1990320048324 980.8582074621543L760.3025228613602 1080.893863981503 655.2346885241811 775.7547166056264z" fill="rgba(0, 0, 0, 0.5)" class="triangle-float1"></path><path d="M1555.175,740.749C1628.775,736.917,1687.54,688.094,1726.141,625.311C1767.135,558.636,1796.893,477.402,1759.293,408.756C1720.61,338.133,1635.687,311.863,1555.175,313.179C1477.223,314.453,1403.264,348.915,1362.298,415.246C1319.13,485.142,1308.436,574.204,1350.315,644.88C1391.508,714.399,1474.477,744.951,1555.175,740.749" fill="rgba(0, 0, 0, 0.5)" class="triangle-float1"></path><path d="M1859.0433219515933 956.7730725011841L1679.2628583365872 794.8980159764919 1697.1682654269011 1136.5535361161901z" fill="rgba(0, 0, 0, 0.5)" class="triangle-float3"></path><path d="M1259.121596151562 440.8400054213457L1167.5276882885062 740.4301787924173 1558.7117695226336 532.4339132844017z" fill="rgba(0, 0, 0, 0.5)" class="triangle-float3"></path><path d="M1368.764,943.01C1465.994,941.726,1556.01,890.354,1603.717,805.623C1650.561,722.424,1645.953,620.165,1596.537,538.467C1548.822,459.581,1460.751,423.355,1368.764,417.179C1261.648,409.987,1137.807,412.734,1081.039,503.854C1022.298,598.141,1061.927,719.055,1122.806,811.976C1177.37,895.257,1269.209,944.325,1368.764,943.01" fill="rgba(0, 0, 0, 0.5)" class="triangle-float1"></path><path d="M843.9088392689312 64.08604404329728L558.3790733172162 197.2307605377863 977.0535557634201 349.6158099950122z" fill="rgba(0, 0, 0, 0.5)" class="triangle-float3"></path><path d="M1158.184,1074.578C1262.616,1083.11,1380.629,1054.238,1428.623,961.096C1474.429,872.2,1412.318,773.382,1355.946,690.78C1308.727,621.589,1241.948,565.621,1158.184,564.82C1073.117,564.007,995.825,612.991,953.764,686.936C912.174,760.053,915.559,847.979,954.796,922.385C997.129,1002.662,1067.73,1067.188,1158.184,1074.578" fill="rgba(0, 0, 0, 0.5)" class="triangle-float2"></path><path d="M1989.8363673691795 253.4132052210998L1751.5290645142354 147.03971045454836 1771.4118527442527 374.30101984837177z" fill="rgba(0, 0, 0, 0.5)" class="triangle-float3"></path><path d="M1565.167,282.645C1606.557,285.717,1647.859,265.928,1668.762,230.072C1689.802,193.982,1685.623,148.94,1663.924,113.243C1643.072,78.939,1605.271,57.843,1565.167,59.645C1527.799,61.324,1497.672,88.159,1480.673,121.479C1465.237,151.736,1469.399,186.364,1485.171,216.447C1502.396,249.302,1528.173,279.899,1565.167,282.645" fill="rgba(0, 0, 0, 0.5)" class="triangle-float2"></path><path d="M1084.684,892.988C1139.469,892.201,1184.714,855.156,1212.171,807.741C1239.699,760.203,1248.533,702.924,1222.872,654.353C1195.538,602.615,1143.19,567.435,1084.684,566.432C1024.485,565.4,966.923,596.644,938.039,649.471C910.185,700.415,920.741,761.755,950.694,811.495C979.598,859.493,1028.661,893.792,1084.684,892.988" fill="rgba(0, 0, 0, 0.5)" class="triangle-float1"></path><path d="M1888.9861089879314 452.83532885302674L1774.8463292065592 338.69554907165457 1660.706549425187 566.9751086343989z" fill="rgba(0, 0, 0, 0.5)" class="triangle-float1"></path><path d="M1189.398765338435 72.24852760593396L1096.866230266363 155.56519641395923 1268.1075010144368 252.70566461805444z" fill="rgba(0, 0, 0, 0.5)" class="triangle-float3"></path><path d="M361.464,566.7C443.908,566.68,530.992,543.581,571.901,472.003C612.576,400.833,591.378,312.221,545.874,244.038C505.406,183.401,434.349,158.209,361.464,156.685C285.184,155.09,205.562,172.583,163.193,236.035C116.294,306.271,107.419,399.673,150.85,472.105C193.269,542.848,278.978,566.72,361.464,566.7" fill="rgba(0, 0, 0, 0.5)" class="triangle-float3"></path><path d="M1631.164,1334.449C1718.649,1335.299,1795.137,1276.565,1834.953,1198.661C1871.478,1127.196,1854.779,1044.572,1814.92,974.912C1774.733,904.68,1712.071,843.79,1631.164,842.508C1548.41,841.197,1477.44,896.693,1437.036,968.924C1397.643,1039.348,1396.27,1123.502,1434.119,1194.768C1474.594,1270.978,1544.877,1333.611,1631.164,1334.449" fill="rgba(0, 0, 0, 0.5)" class="triangle-float2"></path><path d="M1266.682,737.426C1368.284,736.021,1468.305,693.011,1518.083,604.427C1566.991,517.392,1548.864,411.635,1498.042,325.704C1448.252,241.518,1364.443,182.345,1266.682,179.351C1163.519,176.191,1063.159,222.634,1009.396,310.736C953.401,402.496,947.43,519.496,1002.938,611.552C1056.851,700.963,1162.284,738.87,1266.682,737.426" fill="rgba(0, 0, 0, 0.5)" class="triangle-float3"></path><path d="M1783.781,739.384C1827.086,738.496,1852.074,694.838,1872.295,656.534C1890.745,621.584,1902.332,582.46,1885.499,546.703C1865.976,505.232,1829.606,467.453,1783.781,468.511C1739.089,469.542,1709.732,511.162,1689.883,551.218C1672.579,586.139,1671.345,625.426,1688.747,660.298C1708.47,699.821,1739.619,740.29,1783.781,739.384" fill="rgba(0, 0, 0, 0.5)" class="triangle-float2"></path><path d="M1623.238,669.966C1715.673,663.65,1799.789,623.898,1851.619,547.101C1911.428,458.482,1956.223,346.416,1904.9,252.627C1852.198,156.317,1732.801,122.736,1623.238,129.747C1525.624,135.993,1450.497,202.684,1397.779,285.076C1339.189,376.645,1278.599,488.698,1333.545,582.499C1388.189,675.785,1515.377,677.336,1623.238,669.966" fill="rgba(0, 0, 0, 0.5)" class="triangle-float1"></path><path d="M822.004926314672 1237.269645978908L1065.7515661007794 1032.741930433684 617.4772107694479 993.5230061928006z" fill="rgba(0, 0, 0, 0.5)" class="triangle-float2"></path></g><defs><mask id="SvgjsMask2217"><rect width="1920" height="1080" fill="#ffffff"></rect></mask><linearGradient x1="89.06%" y1="119.44%" x2="10.94%" y2="-19.44%" gradientUnits="userSpaceOnUse" id="SvgjsLinearGradient2218"><stop stop-color="rgba(11, 139, 181, 1)" offset="0.07"></stop><stop stop-color="rgba(125, 134, 162, 1)" offset="1"></stop></linearGradient><style>
            @keyframes float1 {
                0%{transform: translate(0, 0)}
                50%{transform: translate(-10px, 0)}
                100%{transform: translate(0, 0)}
            }

            .triangle-float1 {
                animation: float1 5s infinite;
            }

            @keyframes float2 {
                0%{transform: translate(0, 0)}
                50%{transform: translate(-5px, -5px)}
                100%{transform: translate(0, 0)}
            }

            .triangle-float2 {
                animation: float2 4s infinite;
            }

            @keyframes float3 {
                0%{transform: translate(0, 0)}
                50%{transform: translate(0, -10px)}
                100%{transform: translate(0, 0)}
            }

            .triangle-float3 {
                animation: float3 6s infinite;
            }
        </style></defs></svg>