<svg xmlns="http://www.w3.org/2000/svg" version="1.1" xmlns:xlink="http://www.w3.org/1999/xlink" xmlns:svgjs="http://svgjs.com/svgjs" width="1440" height="1000" preserveAspectRatio="none" viewBox="0 0 1440 1000"><g mask="url(&quot;#SvgjsMask1617&quot;)" fill="none"><rect width="1440" height="1000" x="0" y="0" fill="url(#SvgjsLinearGradient1618)"></rect><path d="M64.863,182.122C105.759,180.846,140.713,155.899,161.494,120.653C182.65,84.771,192.155,39.417,169.677,4.349C148.406,-28.836,104.213,-32.404,64.863,-30.1C30.3,-28.077,-1.081,-13.069,-20.652,15.491C-43.616,49.004,-61.356,90.883,-42.807,127.027C-23.078,165.47,21.674,183.469,64.863,182.122" fill="rgba(3, 169, 244, 0.5)" class="triangle-float1"></path><path d="M-15.776395076499597-19.889966723108486L72.7311493380912 311.68836845498635 288.5330894396864 103.29085731728709z" fill="rgba(3, 169, 244, 0.5)" class="triangle-float3"></path><path d="M-71.14 -62.19 a8.95 8.95 0 1 0 17.9 0 a8.95 8.95 0 1 0 -17.9 0z" fill="rgba(3, 169, 244, 0.5)" class="triangle-float1"></path><path d="M1173.3333333333335 99.99999999999997L1473.3333333333335 266.6666666666666 1473.3333333333335-33.33333333333343z" fill="rgba(3, 169, 244, 0.5)" class="triangle-float3"></path><path d="M1493.022,538.014C1598.941,542.548,1711.823,501.533,1759.101,406.643C1803.213,318.107,1748.055,219.682,1692.358,137.936C1645.364,68.964,1576.433,18.996,1493.022,16.124C1404.152,13.064,1315.311,47.794,1268.399,123.336C1218.991,202.897,1219.072,303.085,1263.679,385.434C1310.552,471.967,1394.699,533.805,1493.022,538.014" fill="rgba(3, 169, 244, 0.5)" class="triangle-float3"></path><path d="M1477.412,468.744C1570.337,472.912,1675.9,459.411,1721.592,378.389C1766.817,298.193,1722.226,202.131,1670.849,125.73C1626.44,59.692,1556.693,22.188,1477.412,15.282C1380.759,6.863,1265.733,3.204,1215.231,86.042C1163.684,170.594,1212.466,276.371,1268.433,358.065C1316.181,427.763,1393.012,464.959,1477.412,468.744" fill="rgba(3, 169, 244, 0.5)" class="triangle-float1"></path><path d="M36.98,925.041C70.272,925.564,103.713,913.924,121.501,885.778C140.48,855.747,143.624,816.396,124.606,786.389C106.632,758.03,70.555,752.262,36.98,752.423C3.774,752.582,-31.869,758.899,-49.205,787.221C-67.142,816.525,-61.28,854.062,-43.063,883.193C-25.954,910.553,4.715,924.534,36.98,925.041" fill="rgba(3, 169, 244, 0.5)" class="triangle-float3"></path><path d="M231.80303134518653 1095.406029804035L289.04572995814993 800.9178747697357-5.442425076149277 743.6751761567723-62.685123689112686 1038.1633311910714z" fill="rgba(3, 169, 244, 0.5)" class="triangle-float3"></path><path d="M-232.62 899.28 a331.9 331.9 0 1 0 663.8 0 a331.9 331.9 0 1 0 -663.8 0z" fill="rgba(3, 169, 244, 0.5)" class="triangle-float3"></path><path d="M1104.2977396044844 900.0000000000001L1316.4297739604488 1112.1320343559644 1528.561808316413 900 1316.4297739604485 687.8679656440358z" fill="rgba(3, 169, 244, 0.5)" class="triangle-float2"></path><path d="M1134.76 771.9 a77.14 77.14 0 1 0 154.28 0 a77.14 77.14 0 1 0 -154.28 0z" fill="rgba(3, 169, 244, 0.5)" class="triangle-float2"></path><path d="M1278.995766035927 1127.6709006307399L1538.8033871712587 977.6709006307398 1388.8033871712585 717.8632794954083 1128.9957660359269 867.8632794954083z" fill="rgba(3, 169, 244, 0.5)" class="triangle-float3"></path></g><defs><mask id="SvgjsMask1617"><rect width="1440" height="1000" fill="#ffffff"></rect></mask><linearGradient x1="92.36%" y1="111%" x2="7.64%" y2="-11%" gradientUnits="userSpaceOnUse" id="SvgjsLinearGradient1618"><stop stop-color="rgba(14, 42, 71, 1)" offset="0.07"></stop><stop stop-color="rgba(125, 134, 162, 1)" offset="1"></stop></linearGradient><style>
            @keyframes float1 {
                0%{transform: translate(0, 0)}
                50%{transform: translate(-10px, 0)}
                100%{transform: translate(0, 0)}
            }

            .triangle-float1 {
                animation: float1 5s infinite;
            }

            @keyframes float2 {
                0%{transform: translate(0, 0)}
                50%{transform: translate(-5px, -5px)}
                100%{transform: translate(0, 0)}
            }

            .triangle-float2 {
                animation: float2 4s infinite;
            }

            @keyframes float3 {
                0%{transform: translate(0, 0)}
                50%{transform: translate(0, -10px)}
                100%{transform: translate(0, 0)}
            }

            .triangle-float3 {
                animation: float3 6s infinite;
            }
        </style></defs></svg>