<svg xmlns="http://www.w3.org/2000/svg" version="1.1" xmlns:xlink="http://www.w3.org/1999/xlink" xmlns:svgjs="http://svgjs.com/svgjs" width="1000" height="1000" preserveAspectRatio="none" viewBox="0 0 1000 1000"><g mask="url(&quot;#SvgjsMask2183&quot;)" fill="none"><rect width="1000" height="1000" x="0" y="0" fill="url(#SvgjsLinearGradient2184)"></rect><path d="M232.1255333248429 264.01945422525677L130.70689536779452 281.90229644378803 208.24047767411562 425.08883227009494z" fill="rgba(0, 0, 0, 0.5)" class="triangle-float2"></path><path d="M433.152,712.594C480.854,713.456,517.679,677.063,542.967,636.606C570.342,592.811,592.869,540.542,569.478,494.496C544.374,445.078,488.581,420.633,433.152,420.428C377.341,420.222,319.456,443.28,295.068,493.481C272.651,539.624,302.649,589.358,330,632.759C354.846,672.184,386.559,711.752,433.152,712.594" fill="rgba(0, 0, 0, 0.5)" class="triangle-float3"></path><path d="M963.806,619.945C1026.41,622.767,1091.562,600.386,1122.932,546.135C1154.331,491.833,1136.926,426.692,1107.62,371.233C1075.68,310.788,1032.055,248.976,963.806,244.998C890.201,240.708,819.212,285.932,787.698,352.588C759.504,412.222,791.44,477.744,827.725,532.83C859.479,581.037,906.139,617.346,963.806,619.945" fill="rgba(0, 0, 0, 0.5)" class="triangle-float3"></path><path d="M147.378,907.247C240.893,908.626,314.674,834.914,358.289,752.182C398.759,675.416,402.358,583.375,357.178,509.284C313.707,437.996,230.831,409.006,147.378,406.306C57.796,403.408,-41.802,417.699,-87.333,494.902C-133.348,572.927,-97.835,667.392,-53.025,746.115C-7.578,825.957,55.518,905.892,147.378,907.247" fill="rgba(0, 0, 0, 0.5)" class="triangle-float1"></path><path d="M585.193,330.909C644.027,334.152,702.542,308.779,733.423,258.596C765.743,206.076,766.325,139.644,735.9,86.004C705.073,31.654,647.668,-1.671,585.193,-2.741C520.761,-3.844,453.94,22.972,425.274,80.686C398.693,134.203,430.62,193.329,462.799,243.679C491.715,288.924,531.578,327.954,585.193,330.909" fill="rgba(0, 0, 0, 0.5)" class="triangle-float2"></path><path d="M415.645,756.961C473.07,759.689,532.781,744.038,564.643,696.185C599.881,643.262,610,571.187,574.427,518.489C541.544,469.775,474.419,475.267,415.645,475.457C357.382,475.645,288.912,469.734,258.628,519.508C227.718,570.31,256.505,633.503,289.305,683.105C318.143,726.717,363.42,754.48,415.645,756.961" fill="rgba(0, 0, 0, 0.5)" class="triangle-float2"></path><path d="M608.051,652.383C686.654,657.856,755.617,599.786,791.172,529.471C823.573,465.395,806.14,392.277,771.331,329.477C735.141,264.185,682.699,199.765,608.051,199.094C532.6,198.415,471.54,258.131,439.604,326.493C412.096,385.376,434.501,448.982,464.343,506.717C497.911,571.66,535.123,647.306,608.051,652.383" fill="rgba(0, 0, 0, 0.5)" class="triangle-float2"></path><path d="M604.345,498.541C696.342,498.869,775.801,440.599,822.107,361.104C868.755,281.021,884.841,180.364,835.313,102.029C788.302,27.674,692.274,14.011,604.345,16.683C522.174,19.18,440.157,45.722,396.471,115.363C350.09,189.3,347.637,282.841,389.257,359.56C432.884,439.978,512.856,498.215,604.345,498.541" fill="rgba(0, 0, 0, 0.5)" class="triangle-float2"></path><path d="M343.1804393355762 235.62235691010233L296.81541313401067 83.96918955262615 92.51817519857917 229.34331253371252z" fill="rgba(0, 0, 0, 0.5)" class="triangle-float1"></path><path d="M493.993,1445.66C600.226,1447.2,662.629,1337.963,712.881,1244.355C759.505,1157.503,795.186,1057.841,748.91,970.803C700.281,879.341,597.569,831.218,493.993,832.664C392.927,834.075,297.275,887.834,251.115,977.754C208.251,1061.252,242.588,1154.859,285.829,1238.163C334.206,1331.361,388.998,1444.138,493.993,1445.66" fill="rgba(0, 0, 0, 0.5)" class="triangle-float3"></path><path d="M525.487747931488 175.46099433769817L654.9248156853635 409.4973801246417 778.814242098741 211.23285325222304z" fill="rgba(0, 0, 0, 0.5)" class="triangle-float1"></path><path d="M913.6118407354558 565.4258846859788L729.4936926128233 440.9811613946129 712.5625046780858 634.505525036544z" fill="rgba(0, 0, 0, 0.5)" class="triangle-float1"></path><path d="M565.0908281832169 555.1819976379284L705.9923500853508 522.6523181495437 586.7470699017069 327.5648750405352z" fill="rgba(0, 0, 0, 0.5)" class="triangle-float2"></path><path d="M-53.356511979310696 165.4666680825747L169.16275587601416 278.84589805773027 60.02271799584486-57.05259977275017z" fill="rgba(0, 0, 0, 0.5)" class="triangle-float1"></path><path d="M298.565,541.631C366.442,544.188,443.226,532.353,475.765,472.729C507.53,414.523,468.073,349.125,434.981,291.663C401.795,234.038,364.891,169.814,298.565,165.033C225.892,159.794,157.181,204.725,123.222,269.189C91.246,329.889,105.946,402.503,143.076,460.194C177.014,512.926,235.9,539.27,298.565,541.631" fill="rgba(0, 0, 0, 0.5)" class="triangle-float1"></path><path d="M633.470756053049 488.40809503326113L849.0997420896775 499.70873134049475 644.7713923602826 272.77910899663254z" fill="rgba(0, 0, 0, 0.5)" class="triangle-float3"></path><path d="M816.3410395773681 330.7354454859595L947.9253775697852 419.49020214491713 905.0957962363258 199.1511074935424z" fill="rgba(0, 0, 0, 0.5)" class="triangle-float2"></path><path d="M718.3440547268723 617.0139654949721L811.3433725991292 847.8284326555815 948.239622936467 678.7756423736926z" fill="rgba(0, 0, 0, 0.5)" class="triangle-float3"></path><path d="M935.679,811.192C967.53,810.67,998.19,795.907,1013.739,768.104C1028.956,740.894,1023.893,708.103,1008.49,680.998C992.874,653.517,967.236,632.538,935.679,630.739C900.797,628.75,864.671,641.697,846.913,671.787C828.911,702.291,834.031,740.861,853.055,770.738C870.708,798.462,902.816,811.731,935.679,811.192" fill="rgba(0, 0, 0, 0.5)" class="triangle-float1"></path><path d="M900.227,325.71C955.154,323.538,985.763,268.9,1013.222,221.28C1040.642,173.727,1072.669,119.83,1046.885,71.37C1020.135,21.095,956.976,4.142,900.227,8.911C851.131,13.037,815.683,50.341,790.838,92.887C765.712,135.914,749.424,185.779,770.612,230.876C795.011,282.808,842.894,327.978,900.227,325.71" fill="rgba(0, 0, 0, 0.5)" class="triangle-float3"></path></g><defs><mask id="SvgjsMask2183"><rect width="1000" height="1000" fill="#ffffff"></rect></mask><linearGradient x1="100%" y1="100%" x2="0%" y2="0%" gradientUnits="userSpaceOnUse" id="SvgjsLinearGradient2184"><stop stop-color="rgba(11, 139, 181, 1)" offset="0.07"></stop><stop stop-color="rgba(125, 134, 162, 1)" offset="1"></stop></linearGradient><style>
            @keyframes float1 {
                0%{transform: translate(0, 0)}
                50%{transform: translate(-10px, 0)}
                100%{transform: translate(0, 0)}
            }

            .triangle-float1 {
                animation: float1 5s infinite;
            }

            @keyframes float2 {
                0%{transform: translate(0, 0)}
                50%{transform: translate(-5px, -5px)}
                100%{transform: translate(0, 0)}
            }

            .triangle-float2 {
                animation: float2 4s infinite;
            }

            @keyframes float3 {
                0%{transform: translate(0, 0)}
                50%{transform: translate(0, -10px)}
                100%{transform: translate(0, 0)}
            }

            .triangle-float3 {
                animation: float3 6s infinite;
            }
        </style></defs></svg>