<svg id="visual" viewBox="0 0 900 100" width="900" height="100" xmlns="http://www.w3.org/2000/svg" xmlns:xlink="http://www.w3.org/1999/xlink" version="1.1"><path d="M0 81L39 87L78 77L117 89L157 70L196 54L235 46L274 76L313 79L352 49L391 64L430 76L470 66L509 78L548 86L587 87L626 78L665 70L704 47L743 54L783 72L822 83L861 73L900 91L900 0L861 0L822 0L783 0L743 0L704 0L665 0L626 0L587 0L548 0L509 0L470 0L430 0L391 0L352 0L313 0L274 0L235 0L196 0L157 0L117 0L78 0L39 0L0 0Z" fill="#546cf5"></path><path d="M0 64L39 78L78 57L117 52L157 80L196 75L235 72L274 82L313 76L352 66L391 54L430 78L470 46L509 81L548 49L587 49L626 74L665 52L704 59L743 42L783 83L822 50L861 54L900 63L900 0L861 0L822 0L783 0L743 0L704 0L665 0L626 0L587 0L548 0L509 0L470 0L430 0L391 0L352 0L313 0L274 0L235 0L196 0L157 0L117 0L78 0L39 0L0 0Z" fill="#586be5"></path><path d="M0 36L39 45L78 74L117 64L157 47L196 42L235 36L274 67L313 53L352 53L391 49L430 59L470 44L509 37L548 40L587 60L626 38L665 47L704 54L743 42L783 72L822 64L861 57L900 43L900 0L861 0L822 0L783 0L743 0L704 0L665 0L626 0L587 0L548 0L509 0L470 0L430 0L391 0L352 0L313 0L274 0L235 0L196 0L157 0L117 0L78 0L39 0L0 0Z" fill="#5c69d5"></path><path d="M0 34L39 58L78 42L117 32L157 53L196 29L235 31L274 62L313 58L352 35L391 35L430 45L470 46L509 45L548 29L587 44L626 62L665 51L704 53L743 64L783 29L822 49L861 62L900 35L900 0L861 0L822 0L783 0L743 0L704 0L665 0L626 0L587 0L548 0L509 0L470 0L430 0L391 0L352 0L313 0L274 0L235 0L196 0L157 0L117 0L78 0L39 0L0 0Z" fill="#5e68c6"></path><path d="M0 49L39 53L78 51L117 45L157 49L196 48L235 35L274 40L313 53L352 38L391 24L430 28L470 25L509 27L548 53L587 27L626 39L665 37L704 54L743 27L783 53L822 46L861 42L900 45L900 0L861 0L822 0L783 0L743 0L704 0L665 0L626 0L587 0L548 0L509 0L470 0L430 0L391 0L352 0L313 0L274 0L235 0L196 0L157 0L117 0L78 0L39 0L0 0Z" fill="#6066b6"></path><path d="M0 25L39 28L78 27L117 35L157 19L196 36L235 43L274 36L313 26L352 24L391 41L430 24L470 30L509 39L548 22L587 32L626 23L665 36L704 32L743 43L783 32L822 42L861 28L900 36L900 0L861 0L822 0L783 0L743 0L704 0L665 0L626 0L587 0L548 0L509 0L470 0L430 0L391 0L352 0L313 0L274 0L235 0L196 0L157 0L117 0L78 0L39 0L0 0Z" fill="#6165a7"></path><path d="M0 20L39 14L78 25L117 33L157 30L196 24L235 19L274 18L313 15L352 33L391 17L430 28L470 16L509 33L548 32L587 36L626 18L665 16L704 21L743 13L783 23L822 33L861 31L900 28L900 0L861 0L822 0L783 0L743 0L704 0L665 0L626 0L587 0L548 0L509 0L470 0L430 0L391 0L352 0L313 0L274 0L235 0L196 0L157 0L117 0L78 0L39 0L0 0Z" fill="#616397"></path><path d="M0 17L39 24L78 13L117 10L157 24L196 22L235 26L274 19L313 11L352 8L391 26L430 14L470 19L509 10L548 10L587 19L626 9L665 11L704 14L743 18L783 22L822 20L861 19L900 20L900 0L861 0L822 0L783 0L743 0L704 0L665 0L626 0L587 0L548 0L509 0L470 0L430 0L391 0L352 0L313 0L274 0L235 0L196 0L157 0L117 0L78 0L39 0L0 0Z" fill="#616288"></path><path d="M0 11L39 16L78 16L117 9L157 12L196 13L235 17L274 15L313 9L352 6L391 2L430 11L470 4L509 12L548 16L587 13L626 9L665 3L704 6L743 11L783 11L822 17L861 3L900 1L900 0L861 0L822 0L783 0L743 0L704 0L665 0L626 0L587 0L548 0L509 0L470 0L430 0L391 0L352 0L313 0L274 0L235 0L196 0L157 0L117 0L78 0L39 0L0 0Z" fill="#606079"></path></svg>