<svg id="visual" viewBox="0 0 900 100" width="900" height="100" xmlns="http://www.w3.org/2000/svg" xmlns:xlink="http://www.w3.org/1999/xlink" version="1.1"><path d="M0 65L39 69L78 61L117 71L157 56L196 43L235 36L274 61L313 63L352 39L391 51L430 61L470 53L509 62L548 69L587 69L626 62L665 56L704 37L743 43L783 57L822 66L861 58L900 73L900 0L861 0L822 0L783 0L743 0L704 0L665 0L626 0L587 0L548 0L509 0L470 0L430 0L391 0L352 0L313 0L274 0L235 0L196 0L157 0L117 0L78 0L39 0L0 0Z" fill="#2c4876"></path><path d="M0 51L39 62L78 46L117 41L157 64L196 60L235 58L274 66L313 60L352 53L391 43L430 63L470 36L509 65L548 39L587 39L626 59L665 42L704 47L743 33L783 66L822 40L861 43L900 50L900 0L861 0L822 0L783 0L743 0L704 0L665 0L626 0L587 0L548 0L509 0L470 0L430 0L391 0L352 0L313 0L274 0L235 0L196 0L157 0L117 0L78 0L39 0L0 0Z" fill="#364e79"></path><path d="M0 29L39 36L78 59L117 51L157 38L196 33L235 29L274 53L313 42L352 42L391 39L430 47L470 35L509 29L548 32L587 47L626 30L665 37L704 43L743 33L783 57L822 51L861 46L900 34L900 0L861 0L822 0L783 0L743 0L704 0L665 0L626 0L587 0L548 0L509 0L470 0L430 0L391 0L352 0L313 0L274 0L235 0L196 0L157 0L117 0L78 0L39 0L0 0Z" fill="#40537c"></path><path d="M0 27L39 46L78 33L117 26L157 43L196 23L235 24L274 49L313 46L352 28L391 28L430 36L470 37L509 36L548 23L587 35L626 49L665 40L704 42L743 51L783 23L822 39L861 50L900 28L900 0L861 0L822 0L783 0L743 0L704 0L665 0L626 0L587 0L548 0L509 0L470 0L430 0L391 0L352 0L313 0L274 0L235 0L196 0L157 0L117 0L78 0L39 0L0 0Z" fill="#495980"></path><path d="M0 39L39 42L78 41L117 35L157 39L196 39L235 28L274 31L313 42L352 30L391 19L430 22L470 20L509 22L548 42L587 22L626 31L665 29L704 43L743 21L783 43L822 37L861 33L900 36L900 0L861 0L822 0L783 0L743 0L704 0L665 0L626 0L587 0L548 0L509 0L470 0L430 0L391 0L352 0L313 0L274 0L235 0L196 0L157 0L117 0L78 0L39 0L0 0Z" fill="#515f83"></path><path d="M0 20L39 22L78 22L117 28L157 15L196 28L235 34L274 28L313 21L352 19L391 33L430 19L470 24L509 31L548 17L587 26L626 19L665 28L704 26L743 35L783 25L822 34L861 22L900 28L900 0L861 0L822 0L783 0L743 0L704 0L665 0L626 0L587 0L548 0L509 0L470 0L430 0L391 0L352 0L313 0L274 0L235 0L196 0L157 0L117 0L78 0L39 0L0 0Z" fill="#596586"></path><path d="M0 16L39 11L78 20L117 26L157 24L196 19L235 15L274 14L313 12L352 26L391 14L430 23L470 13L509 26L548 25L587 29L626 14L665 13L704 17L743 11L783 18L822 26L861 25L900 22L900 0L861 0L822 0L783 0L743 0L704 0L665 0L626 0L587 0L548 0L509 0L470 0L430 0L391 0L352 0L313 0L274 0L235 0L196 0L157 0L117 0L78 0L39 0L0 0Z" fill="#616b8a"></path><path d="M0 13L39 19L78 10L117 8L157 19L196 17L235 21L274 15L313 9L352 6L391 21L430 11L470 15L509 8L548 8L587 15L626 7L665 9L704 11L743 14L783 17L822 15L861 15L900 16L900 0L861 0L822 0L783 0L743 0L704 0L665 0L626 0L587 0L548 0L509 0L470 0L430 0L391 0L352 0L313 0L274 0L235 0L196 0L157 0L117 0L78 0L39 0L0 0Z" fill="#69718d"></path><path d="M0 8L39 13L78 12L117 7L157 10L196 10L235 13L274 12L313 7L352 4L391 2L430 8L470 3L509 10L548 13L587 10L626 7L665 2L704 4L743 9L783 9L822 13L861 2L900 1L900 0L861 0L822 0L783 0L743 0L704 0L665 0L626 0L587 0L548 0L509 0L470 0L430 0L391 0L352 0L313 0L274 0L235 0L196 0L157 0L117 0L78 0L39 0L0 0Z" fill="#717791"></path></svg>