<svg id="visual" viewBox="0 0 900 100" width="900" height="100" xmlns="http://www.w3.org/2000/svg" xmlns:xlink="http://www.w3.org/1999/xlink" version="1.1"><path d="M0 73L39 78L78 69L117 80L157 63L196 48L235 41L274 69L313 71L352 44L391 57L430 68L470 60L509 70L548 78L587 78L626 70L665 63L704 42L743 49L783 64L822 75L861 65L900 82L900 0L861 0L822 0L783 0L743 0L704 0L665 0L626 0L587 0L548 0L509 0L470 0L430 0L391 0L352 0L313 0L274 0L235 0L196 0L157 0L117 0L78 0L39 0L0 0Z" fill="#508ec3"></path><path d="M0 57L39 70L78 52L117 47L157 72L196 67L235 65L274 74L313 68L352 60L391 48L430 71L470 41L509 73L548 44L587 44L626 67L665 47L704 53L743 38L783 75L822 45L861 49L900 57L900 0L861 0L822 0L783 0L743 0L704 0L665 0L626 0L587 0L548 0L509 0L470 0L430 0L391 0L352 0L313 0L274 0L235 0L196 0L157 0L117 0L78 0L39 0L0 0Z" fill="#5787ba"></path><path d="M0 33L39 40L78 66L117 57L157 43L196 37L235 33L274 60L313 47L352 47L391 44L430 53L470 40L509 33L548 36L587 53L626 34L665 42L704 48L743 38L783 64L822 57L861 52L900 39L900 0L861 0L822 0L783 0L743 0L704 0L665 0L626 0L587 0L548 0L509 0L470 0L430 0L391 0L352 0L313 0L274 0L235 0L196 0L157 0L117 0L78 0L39 0L0 0Z" fill="#5c81b1"></path><path d="M0 30L39 52L78 37L117 29L157 48L196 26L235 28L274 56L313 52L352 32L391 32L430 41L470 41L509 41L548 26L587 40L626 55L665 46L704 48L743 58L783 26L822 44L861 56L900 31L900 0L861 0L822 0L783 0L743 0L704 0L665 0L626 0L587 0L548 0L509 0L470 0L430 0L391 0L352 0L313 0L274 0L235 0L196 0L157 0L117 0L78 0L39 0L0 0Z" fill="#607ba7"></path><path d="M0 44L39 48L78 46L117 40L157 44L196 44L235 32L274 36L313 48L352 34L391 22L430 25L470 23L509 25L548 48L587 24L626 35L665 33L704 48L743 24L783 48L822 41L861 38L900 41L900 0L861 0L822 0L783 0L743 0L704 0L665 0L626 0L587 0L548 0L509 0L470 0L430 0L391 0L352 0L313 0L274 0L235 0L196 0L157 0L117 0L78 0L39 0L0 0Z" fill="#62759e"></path><path d="M0 22L39 25L78 24L117 32L157 17L196 32L235 38L274 32L313 24L352 21L391 37L430 22L470 27L509 35L548 19L587 29L626 21L665 32L704 29L743 39L783 28L822 38L861 25L900 32L900 0L861 0L822 0L783 0L743 0L704 0L665 0L626 0L587 0L548 0L509 0L470 0L430 0L391 0L352 0L313 0L274 0L235 0L196 0L157 0L117 0L78 0L39 0L0 0Z" fill="#636f95"></path><path d="M0 18L39 12L78 22L117 30L157 27L196 21L235 17L274 16L313 13L352 29L391 15L430 26L470 14L509 29L548 29L587 32L626 16L665 15L704 19L743 12L783 21L822 29L861 28L900 25L900 0L861 0L822 0L783 0L743 0L704 0L665 0L626 0L587 0L548 0L509 0L470 0L430 0L391 0L352 0L313 0L274 0L235 0L196 0L157 0L117 0L78 0L39 0L0 0Z" fill="#636a8b"></path><path d="M0 15L39 21L78 11L117 9L157 22L196 20L235 23L274 17L313 10L352 7L391 24L430 12L470 17L509 9L548 9L587 17L626 8L665 10L704 13L743 16L783 20L822 18L861 17L900 18L900 0L861 0L822 0L783 0L743 0L704 0L665 0L626 0L587 0L548 0L509 0L470 0L430 0L391 0L352 0L313 0L274 0L235 0L196 0L157 0L117 0L78 0L39 0L0 0Z" fill="#626582"></path><path d="M0 10L39 14L78 14L117 8L157 11L196 12L235 15L274 14L313 8L352 5L391 2L430 9L470 3L509 11L548 14L587 12L626 8L665 2L704 5L743 10L783 10L822 15L861 2L900 1L900 0L861 0L822 0L783 0L743 0L704 0L665 0L626 0L587 0L548 0L509 0L470 0L430 0L391 0L352 0L313 0L274 0L235 0L196 0L157 0L117 0L78 0L39 0L0 0Z" fill="#606079"></path></svg>