<svg id="visual" viewBox="0 0 900 100" width="900" height="100" xmlns="http://www.w3.org/2000/svg" xmlns:xlink="http://www.w3.org/1999/xlink" version="1.1"><path d="M0 45L64 55L129 52L193 60L257 63L321 50L386 47L450 59L514 47L579 54L643 66L707 52L771 64L836 67L900 48L900 0L836 0L771 0L707 0L643 0L579 0L514 0L450 0L386 0L321 0L257 0L193 0L129 0L64 0L0 0Z" fill="#5271ff"></path><path d="M0 50L64 58L129 50L193 38L257 53L321 52L386 43L450 46L514 56L579 41L643 59L707 52L771 39L836 53L900 56L900 0L836 0L771 0L707 0L643 0L579 0L514 0L450 0L386 0L321 0L257 0L193 0L129 0L64 0L0 0Z" fill="#5573f2"></path><path d="M0 50L64 37L129 36L193 33L257 45L321 37L386 52L450 44L514 49L579 52L643 41L707 42L771 39L836 35L900 38L900 0L836 0L771 0L707 0L643 0L579 0L514 0L450 0L386 0L321 0L257 0L193 0L129 0L64 0L0 0Z" fill="#5974e4"></path><path d="M0 40L64 45L129 31L193 42L257 45L321 37L386 43L450 40L514 41L579 28L643 36L707 38L771 33L836 39L900 37L900 0L836 0L771 0L707 0L643 0L579 0L514 0L450 0L386 0L321 0L257 0L193 0L129 0L64 0L0 0Z" fill="#5e75d7"></path><path d="M0 23L64 30L129 24L193 37L257 28L321 38L386 37L450 33L514 27L579 31L643 33L707 23L771 24L836 24L900 24L900 0L836 0L771 0L707 0L643 0L579 0L514 0L450 0L386 0L321 0L257 0L193 0L129 0L64 0L0 0Z" fill="#6276c9"></path><path d="M0 21L64 29L129 28L193 26L257 27L321 21L386 21L450 20L514 20L579 26L643 19L707 28L771 23L836 20L900 25L900 0L836 0L771 0L707 0L643 0L579 0L514 0L450 0L386 0L321 0L257 0L193 0L129 0L64 0L0 0Z" fill="#6677bb"></path><path d="M0 14L64 19L129 16L193 20L257 19L321 18L386 17L450 23L514 17L579 24L643 14L707 23L771 17L836 19L900 23L900 0L836 0L771 0L707 0L643 0L579 0L514 0L450 0L386 0L321 0L257 0L193 0L129 0L64 0L0 0Z" fill="#6a77ad"></path><path d="M0 15L64 13L129 14L193 17L257 13L321 8L386 8L450 13L514 12L579 11L643 12L707 13L771 12L836 14L900 13L900 0L836 0L771 0L707 0L643 0L579 0L514 0L450 0L386 0L321 0L257 0L193 0L129 0L64 0L0 0Z" fill="#6e779f"></path><path d="M0 11L64 3L129 10L193 6L257 10L321 6L386 10L450 3L514 10L579 7L643 5L707 11L771 9L836 5L900 4L900 0L836 0L771 0L707 0L643 0L579 0L514 0L450 0L386 0L321 0L257 0L193 0L129 0L64 0L0 0Z" fill="#717791"></path></svg>