<svg id="visual" viewBox="0 0 900 100" width="900" height="100" xmlns="http://www.w3.org/2000/svg" xmlns:xlink="http://www.w3.org/1999/xlink" version="1.1"><rect x="0" y="0" width="900" height="100" fill="#1f1f1f"></rect><path d="M0 75L12.5 77.8C25 80.7 50 86.3 75 83.8C100 81.3 125 70.7 150 70.7C175 70.7 200 81.3 225 80.8C250 80.3 275 68.7 300 65.3C325 62 350 67 375 69C400 71 425 70 450 67.8C475 65.7 500 62.3 525 66.5C550 70.7 575 82.3 600 81.3C625 80.3 650 66.7 675 63.5C700 60.3 725 67.7 750 68.8C775 70 800 65 825 64.7C850 64.3 875 68.7 887.5 70.8L900 73L900 101L887.5 101C875 101 850 101 825 101C800 101 775 101 750 101C725 101 700 101 675 101C650 101 625 101 600 101C575 101 550 101 525 101C500 101 475 101 450 101C425 101 400 101 375 101C350 101 325 101 300 101C275 101 250 101 225 101C200 101 175 101 150 101C125 101 100 101 75 101C50 101 25 101 12.5 101L0 101Z" fill="#5271FF" stroke-linecap="round" stroke-linejoin="miter"></path></svg>